# xmcd
#
# Track frame offsets:
#      182
#      10437
#      33615
#      49822
#      68102
#      78912
#      90752
#      103095
#      121715
#      127980
#      145867
#      165387
#      184295
#      207247
#      219877
#      232155
# 
# Disc length: 3231 seconds
#
# Revision: 1
# Processed by: cddbd v1.4PL0 Copyright (c) Steve Scherf et al.
#
# Submitted via: FreeRIP 1.21
#
DISCID=d30c9d10
DTITLE=Merle Haggard - Live
DYEAR=1995
DGENRE=Country
TTITLE0=Mama Tried (Live Recorded)
TTITLE1=When Times Were Good (Live Recorded)
TTITLE2=Today I Started Loving You Again (Live Recorded)
TTITLE3=The Chill Factor (Live Recorded)
TTITLE4=Ida Red (Live Recorded)
TTITLE5=Okie From Muskogee (Live Recorded)
TTITLE6=Bill Cheatum (Instrumental)
TTITLE7=Mama's Hungry Eyes (Live Recorded)
TTITLE8=The Fightin' Side Of Me (Live Recorded)
TTITLE9=I Think I'll Just Stay Here And Drink (Live Recorded)
TTITLE10=Honky Tonk Night Time Man (Live Recorded)
TTITLE11=Footlights (Live Recorded)
TTITLE12=If I Could Only Fly (Live Recorded)
TTITLE13=Kern River (Live Recorded)
TTITLE14=I Knew The Moment I Lost You (Live Recorded)
TTITLE15=This Mornin' This Evenin' So Soon (Live Recorded)
EXTD=
EXTT0=
EXTT1=
EXTT2=
EXTT3=
EXTT4=
EXTT5=
EXTT6=
EXTT7=
EXTT8=
EXTT9=
EXTT10=
EXTT11=
EXTT12=
EXTT13=
EXTT14=
EXTT15=
PLAYORDER=
